<svg xmlns="http://www.w3.org/2000/svg"  viewBox="0 0 100 100" width="100px" height="100px"><path d="M 48.880859 11.003906 C 44.826683 11.050402 40.888941 13.147527 38.675781 16.882812 L 22.675781 43.882812 L 22.677734 43.882812 C 19.992742 48.411885 20.539648 54.289464 24.310547 58.283203 C 26.631718 60.741624 29.915064 62 33.246094 62 L 45.941406 62 L 40.675781 70.882812 L 40.677734 70.882812 C 37.303996 76.572864 39.190818 83.95171 44.882812 87.324219 L 44.882812 87.322266 C 46.798491 88.458168 48.908794 89.001953 50.988281 89.001953 C 55.08813 89.001953 59.085527 86.893346 61.324219 83.117188 L 77.324219 56.117188 C 80.009117 51.588161 79.462305 45.710536 75.691406 41.716797 C 73.370236 39.258376 70.086889 38 66.755859 38 L 54.060547 38 L 54.058594 38 L 59.322266 29.117188 C 62.696051 23.427136 60.809182 16.050244 55.117188 12.677734 C 53.69444 11.83405 52.165674 11.31994 50.621094 11.111328 C 50.041876 11.033099 49.460027 10.997264 48.880859 11.003906 z M 48.894531 12.994141 C 49.376747 12.989185 49.861096 13.020003 50.34375 13.085938 C 51.630826 13.261762 52.907404 13.692622 54.097656 14.398438 C 58.859662 17.219927 60.423825 23.337708 57.601562 28.097656 L 52.337891 36.980469 A 1.0001 1.0001 0 0 0 52.337891 36.982422 C 51.574008 38.273607 52.560386 40 54.060547 40 L 66.755859 40 C 69.582829 40 72.329499 41.070264 74.236328 43.089844 C 77.403429 46.444104 77.84257 51.320729 75.603516 55.097656 L 59.603516 82.097656 C 57.730208 85.257497 54.404433 87.001953 50.988281 87.001953 C 49.255768 87.001953 47.504666 86.553613 45.902344 85.603516 C 41.140338 82.782025 39.574222 76.662292 42.396484 71.902344 L 47.662109 63.019531 C 48.426339 61.729047 47.441568 60 45.941406 60 L 33.246094 60 C 30.419124 60 27.670501 58.929736 25.763672 56.910156 C 22.596571 53.555896 22.15743 48.679271 24.396484 44.902344 L 40.396484 17.902344 C 42.248138 14.777192 45.519021 13.028828 48.894531 12.994141 z M 49.009766 14.998047 C 46.190929 14.998047 43.553111 16.498419 42.117188 18.921875 L 41.015625 20.78125 A 0.50043663 0.50043663 0 1 0 41.876953 21.291016 L 42.978516 19.431641 C 44.232591 17.315097 46.546602 15.998047 49.009766 15.998047 C 50.255197 15.998047 51.485932 16.336904 52.568359 16.978516 C 54.181575 17.933352 55.317366 19.44937 55.78125 21.265625 C 56.245999 23.079735 55.978247 24.957061 55.023438 26.568359 L 49.759766 35.451172 A 0.50005 0.50005 0 0 0 49.757812 35.453125 C 48.844684 36.998335 48.829278 38.921942 49.71875 40.478516 L 49.716797 40.478516 C 50.603925 42.034881 52.268439 43.001953 54.060547 43.001953 L 66.755859 43.001953 C 68.845355 43.001953 70.774546 43.796417 72.052734 45.150391 C 74.251151 47.477244 74.63674 50.845154 73.021484 53.570312 L 70.425781 57.951172 A 0.50009542 0.50009542 0 0 0 71.285156 58.462891 L 73.882812 54.080078 C 75.719557 50.981237 75.272833 47.100038 72.78125 44.462891 C 71.293438 42.886864 69.098364 42.001953 66.755859 42.001953 L 54.060547 42.001953 C 52.628654 42.001953 51.294809 41.226057 50.585938 39.982422 C 49.875408 38.738995 49.888273 37.197727 50.619141 35.960938 L 55.882812 27.078125 C 56.970003 25.243424 57.279251 23.083468 56.75 21.017578 C 56.221884 18.949833 54.91491 17.20435 53.078125 16.117188 C 51.842552 15.384799 50.436334 14.998047 49.009766 14.998047 z M 39.527344 23.791016 A 0.50005 0.50005 0 0 0 39.083984 24.042969 L 37.439453 26.816406 A 0.50043663 0.50043663 0 1 0 38.300781 27.326172 L 39.943359 24.552734 A 0.50005 0.50005 0 0 0 39.527344 23.791016 z M 36.513672 28.876953 A 0.50005 0.50005 0 0 0 36.462891 28.878906 A 0.50005 0.50005 0 0 0 36.068359 29.128906 L 26.117188 45.921875 C 24.280365 49.019784 24.727167 52.899962 27.21875 55.537109 C 28.705723 57.113387 30.901636 58 33.244141 58 L 45.904297 58 L 45.939453 58 C 47.371552 58 48.705193 58.773058 49.414062 60.017578 A 0.50005 0.50005 0 0 0 49.414062 60.019531 C 50.124541 61.262869 50.111527 62.803501 49.380859 64.039062 L 44.117188 72.923828 C 43.030113 74.758333 42.719665 76.915394 43.25 78.982422 C 43.778178 81.049343 45.086373 82.794714 46.921875 83.882812 C 48.156586 84.615323 49.561712 85.003906 50.988281 85.003906 C 53.808051 85.003906 56.446888 83.501581 57.882812 81.078125 L 59.765625 77.900391 A 0.50043663 0.50043663 0 0 0 58.904297 77.390625 L 57.021484 80.568359 C 55.767409 82.684903 53.452512 84.003906 50.988281 84.003906 C 49.74285 84.003906 48.51293 83.664928 47.431641 83.023438 C 45.819143 82.067537 44.682572 80.549454 44.21875 78.734375 C 43.753085 76.919402 44.021637 75.045089 44.976562 73.433594 L 50.240234 64.548828 A 0.50005 0.50005 0 0 0 50.242188 64.548828 C 51.155516 63.004391 51.170773 61.0801 50.28125 59.523438 L 50.283203 59.523438 C 49.442181 58.047031 47.885392 57.164741 46.201172 57.070312 A 0.50005 0.50005 0 0 0 45.939453 57 L 33.244141 57 C 31.154645 57 29.224292 56.205286 27.947266 54.851562 C 25.748849 52.52471 25.363338 49.155732 26.978516 46.431641 L 36.929688 29.638672 A 0.50005 0.50005 0 0 0 36.513672 28.876953 z M 69.255859 60.421875 A 0.50005 0.50005 0 0 0 69.205078 60.423828 A 0.50005 0.50005 0 0 0 68.810547 60.673828 L 64.253906 68.363281 A 0.50043663 0.50043663 0 1 0 65.115234 68.873047 L 69.671875 61.183594 A 0.50005 0.50005 0 0 0 69.255859 60.421875 z M 63.171875 70.6875 A 0.50005 0.50005 0 0 0 62.728516 70.939453 L 61.412109 73.158203 A 0.50043706 0.50043706 0 1 0 62.273438 73.667969 L 63.587891 71.449219 A 0.50005 0.50005 0 0 0 63.171875 70.6875 z"/></svg>